<svg width="121" height="23" viewBox="0 0 121 23" fill="none" xmlns="http://www.w3.org/2000/svg">
<path d="M30.4069 22.4677L25.2628 9.4767C27.4715 9.4767 29.4478 10.8548 30.2131 12.9279L32.4243 18.9293L36.7207 7.46895C37.4981 5.39824 39.4768 4.02502 41.6904 4.02502L34.4441 22.4701H30.4069V22.4677Z" fill="#005BAA"/>
<path d="M53.9354 19.0286L53.887 18.9002H45.4249L45.3765 19.0286C44.5893 21.0993 42.6058 22.4677 40.3922 22.4677L47.6385 4.02258H51.6758L58.9221 22.4677C56.7036 22.4677 54.7201 21.0993 53.9354 19.0286ZM49.6535 7.25823L46.3355 16.0521H52.9715L49.6535 7.25823Z" fill="#005BAA"/>
<path d="M73.7683 22.4677L64.1461 9.27566V19.232C64.1461 21.0194 62.6978 22.4677 60.9105 22.4677V4.02258H64.2285L73.6593 16.798V7.25823C73.6593 5.47087 75.1076 4.02258 76.895 4.02258V22.4677H73.7683Z" fill="#005BAA"/>
<path d="M80.8208 22.4676V8.26804C82.6082 8.26804 84.0565 9.71633 84.0565 11.5037V22.4676H80.8208Z" fill="#005BAA"/>
<path d="M87.1808 13.2597C87.1808 7.56339 91.4119 3.71985 96.8587 3.71985C100.564 3.71985 102.887 5.6283 104.243 7.83948C102.863 8.56605 101.196 8.4498 99.9127 7.56339C99.0408 6.96034 97.9776 6.59463 96.8587 6.59463C93.2089 6.59463 90.4988 9.36043 90.4988 13.2597C90.4988 17.1032 93.2089 19.9247 96.8587 19.9247C97.9728 19.9247 99.0311 19.5517 99.903 18.9511C101.196 18.0599 102.865 17.9242 104.27 18.6266C102.86 20.8378 100.564 22.8019 96.8587 22.8019C91.4119 22.7995 87.1808 18.9269 87.1808 13.2597Z" fill="#005BAA"/>
<path d="M105.655 19.869L105.687 19.8254C106.58 18.5951 108.239 18.2609 109.579 18.9826C110.627 19.5493 111.887 19.9247 113.316 19.9247C115.97 19.9247 116.994 18.6242 116.994 17.3817C116.994 13.5091 106.265 15.9165 106.265 9.14004C106.265 6.0715 108.92 3.71985 112.986 3.71985C115.834 3.71985 118.186 4.65954 119.872 6.31854C118.963 7.51737 117.346 7.91698 115.98 7.29214C114.941 6.81745 113.807 6.59463 112.683 6.59463C110.804 6.59463 109.586 7.53432 109.586 8.89058C109.586 12.3466 120.315 10.2178 120.315 17.0766C120.315 20.1451 118.13 22.8019 113.18 22.8019C109.775 22.7995 107.314 21.5837 105.655 19.869Z" fill="#005BAA"/>
<path d="M23.2588 7.66425L26.9207 7.66425V4.00235H23.2588V7.66425Z" fill="#005BAA"/>
<path d="M28.3946 5.22232H31.497V2.11988L28.3946 2.11988V5.22232Z" fill="#005BAA"/>
<path d="M25.09 1.83112L26.921 1.83112V0.00016737L25.09 0.00016737V1.83112Z" fill="#005BAA"/>
<path d="M80.8208 7.25823V4.02258C82.6082 4.02258 84.0565 5.47087 84.0565 7.25823H80.8208Z" fill="#005BAA"/>
<path d="M0 22.4678H5.41777C5.41777 22.4678 10.9397 22.538 13.4536 17.1324C14.1172 15.7083 14.4199 14.1413 14.4199 12.5719V6.80541H17.9074C19.6391 6.80541 21.0414 5.40314 21.0414 3.67149H11.131V12.8819C11.131 14.5361 10.5328 16.1563 9.38482 17.3479C8.21505 18.5588 6.30418 19.5567 3.21627 19.1885V6.83448H5.34511C5.34511 6.83448 7.922 6.81026 10.0799 9.17887V5.2215C10.0799 5.2215 9.97576 5.13189 9.78685 4.99626C8.57107 4.12196 7.10582 3.66907 5.6091 3.66907H0V22.4678Z" fill="#005BAA"/>
<path d="M15.1706 11.1841H21.0413C21.0413 12.9666 19.5954 14.4125 17.8129 14.4125H15.1585L15.1706 11.1841Z" fill="#005BAA"/>
<path d="M21.0412 22.4676H8.86639C8.86639 22.4676 11.8381 21.5787 13.0732 19.2392H17.8129C19.5954 19.2392 21.0412 20.6851 21.0412 22.4676Z" fill="#005BAA"/>
</svg>
