<svg width="312" height="59" viewBox="0 0 312 59" fill="none" xmlns="http://www.w3.org/2000/svg">
<path d="M78.9617 57.472L65.6033 24.2422C71.3391 24.2422 76.4712 27.7671 78.4586 33.07L84.2007 48.4211L95.3578 19.1066C97.3766 13.8099 102.515 10.2974 108.263 10.2974L89.4459 57.4782H78.9617V57.472Z" fill="white"/>
<path d="M140.062 48.675L139.936 48.3466H117.961L117.835 48.675C115.791 53.9717 110.641 57.4718 104.892 57.4718L123.71 10.291H134.194L153.011 57.4718C147.25 57.4718 142.099 53.9717 140.062 48.675ZM128.942 18.5675L120.326 41.0614H137.559L128.942 18.5675Z" fill="white"/>
<path d="M191.564 57.4718L166.577 23.7279V49.1954C166.577 53.7672 162.816 57.4718 158.175 57.4718V10.291H166.791L191.281 42.9694V18.5675C191.281 13.9956 195.042 10.291 199.684 10.291V57.4718H191.564Z" fill="white"/>
<path d="M209.879 57.4709V21.1499C214.52 21.1499 218.281 24.8545 218.281 29.4264V57.4709H209.879Z" fill="white"/>
<path d="M226.394 33.9185C226.394 19.348 237.382 9.5166 251.526 9.5166C261.149 9.5166 267.18 14.3982 270.702 20.0542C267.117 21.9127 262.79 21.6154 259.457 19.348C257.193 17.8055 254.432 16.87 251.526 16.87C242.048 16.87 235.011 23.9447 235.011 33.9185C235.011 43.7499 242.048 50.9671 251.526 50.9671C254.419 50.9671 257.168 50.013 259.432 48.4767C262.79 46.1969 267.123 45.85 270.771 47.6466C267.111 53.3026 261.149 58.3267 251.526 58.3267C237.382 58.3205 226.394 48.4147 226.394 33.9185Z" fill="white"/>
<path d="M274.369 50.8246L274.45 50.7131C276.771 47.566 281.079 46.7111 284.557 48.5572C287.281 50.0068 290.551 50.9671 294.262 50.9671C301.155 50.9671 303.815 47.6404 303.815 44.4624C303.815 34.5566 275.954 40.7144 275.954 23.3809C275.954 15.5319 282.847 9.5166 293.406 9.5166C300.802 9.5166 306.909 11.9202 311.287 16.1638C308.928 19.2303 304.727 20.2525 301.18 18.6542C298.482 17.44 295.538 16.87 292.62 16.87C287.74 16.87 284.576 19.2737 284.576 22.7428C284.576 31.583 312.438 26.1377 312.438 43.6818C312.438 51.5308 306.765 58.3267 293.909 58.3267C285.067 58.3205 278.677 55.2106 274.369 50.8246Z" fill="white"/>
<path d="M60.3998 19.6064H69.9091V10.2397L60.3998 10.2397V19.6064Z" fill="white"/>
<path d="M73.7365 13.3599L81.7931 13.3599V5.42412L73.7365 5.42412V13.3599Z" fill="white"/>
<path d="M65.1551 4.68555L69.9098 4.68555V0.00215864L65.1551 0.00215864V4.68555Z" fill="white"/>
<path d="M209.879 18.5675V10.291C214.52 10.291 218.281 13.9956 218.281 18.5675H209.879Z" fill="white"/>
<path d="M0 57.471H14.0691C14.0691 57.471 28.4086 57.6507 34.9368 43.8235C36.6601 40.1809 37.4462 36.1727 37.4462 32.1584V17.4082H46.5027C50.9996 17.4082 54.641 13.8213 54.641 9.39194H28.9054V32.9514C28.9054 37.1825 27.352 41.3269 24.3709 44.3749C21.3331 47.4723 16.3709 50.0247 8.35213 49.083V17.4826H13.8804C13.8804 17.4826 20.5721 17.4206 26.1759 23.4793V13.3567C26.1759 13.3567 25.9054 13.1275 25.4149 12.7806C22.2577 10.5442 18.4527 9.38574 14.5659 9.38574H0V57.471Z" fill="white"/>
<path d="M39.3959 28.6089H54.6411C54.6411 33.1684 50.8864 36.8668 46.2575 36.8668H39.3645L39.3959 28.6089Z" fill="white"/>
<path d="M54.641 57.4713H23.0249C23.0249 57.4713 30.7418 55.1977 33.9493 49.2134H46.2574C50.8863 49.2134 54.641 52.9118 54.641 57.4713Z" fill="white"/>
</svg>
